<svg xmlns="http://www.w3.org/2000/svg" style="display:none">

  <!-- ══ UI Icons ══ -->
  <symbol id="i-cart" viewBox="0 0 24 24" fill="none" stroke="currentColor" stroke-width="1.5" stroke-linecap="round" stroke-linejoin="round">
    <path d="M6 2L3 6v14a2 2 0 002 2h14a2 2 0 002-2V6l-3-4z"/><path d="M3 6h18"/><path d="M16 10a4 4 0 01-8 0"/>
  </symbol>

  <symbol id="i-menu" viewBox="0 0 24 24" fill="none" stroke="currentColor" stroke-width="2" stroke-linecap="round">
    <path d="M4 7h16M4 12h16M4 17h16"/>
  </symbol>

  <symbol id="i-close" viewBox="0 0 24 24" fill="none" stroke="currentColor" stroke-width="2" stroke-linecap="round">
    <path d="M18 6L6 18M6 6l12 12"/>
  </symbol>

  <symbol id="i-arrow-left" viewBox="0 0 24 24" fill="none" stroke="currentColor" stroke-width="2" stroke-linecap="round" stroke-linejoin="round">
    <path d="M19 12H5M12 19l-7-7 7-7"/>
  </symbol>

  <symbol id="i-arrow-right" viewBox="0 0 24 24" fill="none" stroke="currentColor" stroke-width="2" stroke-linecap="round" stroke-linejoin="round">
    <path d="M5 12h14M12 5l7 7-7 7"/>
  </symbol>

  <symbol id="i-chevron" viewBox="0 0 24 24" fill="none" stroke="currentColor" stroke-width="2" stroke-linecap="round" stroke-linejoin="round">
    <path d="M9 5l7 7-7 7"/>
  </symbol>

  <symbol id="i-minus" viewBox="0 0 24 24" fill="none" stroke="currentColor" stroke-width="2" stroke-linecap="round">
    <path d="M5 12h14"/>
  </symbol>

  <symbol id="i-plus" viewBox="0 0 24 24" fill="none" stroke="currentColor" stroke-width="2" stroke-linecap="round">
    <path d="M12 5v14M5 12h14"/>
  </symbol>

  <symbol id="i-trash" viewBox="0 0 24 24" fill="none" stroke="currentColor" stroke-width="1.5" stroke-linecap="round">
    <path d="M4 6h16M9 6V4h6v2M7 6l1 13a2 2 0 002 2h4a2 2 0 002-2l1-13M10 10v7M14 10v7"/>
  </symbol>

  <symbol id="i-lock" viewBox="0 0 24 24" fill="none">
    <rect x="4" y="11" width="16" height="10" rx="2" fill="rgba(0,255,133,0.08)" stroke="#00FF85" stroke-width="1.5"/>
    <path d="M7 11V7a5 5 0 0110 0v4" fill="none" stroke="#00FF85" stroke-width="1.5" stroke-linecap="round"/>
    <circle cx="12" cy="16" r="1.5" fill="#00FF85"/>
  </symbol>

  <!-- ══ Stars ══ -->
  <symbol id="i-star" viewBox="0 0 24 24">
    <defs><linearGradient id="gStar" x1="0%" y1="0%" x2="100%" y2="100%"><stop offset="0%" stop-color="#FFD700"/><stop offset="100%" stop-color="#FFA500"/></linearGradient></defs>
    <path d="M12 2l3 6.2 6.8 1-5 4.8 1.2 6.8L12 17.6l-6 3.2 1.2-6.8-5-4.8L9 8.2z" fill="url(#gStar)"/>
  </symbol>

  <symbol id="i-star-empty" viewBox="0 0 24 24" fill="none">
    <path d="M12 2l3 6.2 6.8 1-5 4.8 1.2 6.8L12 17.6l-6 3.2 1.2-6.8-5-4.8L9 8.2z" stroke="#444" stroke-width="1.5"/>
  </symbol>

  <!-- ══ Check ══ -->
  <symbol id="i-check" viewBox="0 0 24 24" fill="none">
    <circle cx="12" cy="12" r="10" fill="rgba(0,255,133,0.08)" stroke="rgba(0,255,133,0.25)" stroke-width="1.2"/>
    <path d="M7 12.5l3 3 7-7" stroke="#00FF85" stroke-width="2" stroke-linecap="round" stroke-linejoin="round"/>
  </symbol>

  <symbol id="i-check-sc" viewBox="0 0 24 24" fill="none">
    <circle cx="12" cy="12" r="10" fill="rgba(255,85,0,0.08)" stroke="rgba(255,85,0,0.25)" stroke-width="1.2"/>
    <path d="M7 12.5l3 3 7-7" stroke="#FF5500" stroke-width="2" stroke-linecap="round" stroke-linejoin="round"/>
  </symbol>

  <!-- ══ Lightning ══ -->
  <symbol id="i-zap" viewBox="0 0 24 24">
    <defs><linearGradient id="gZap" x1="0%" y1="0%" x2="100%" y2="100%"><stop offset="0%" stop-color="#FFD700"/><stop offset="100%" stop-color="#FFA500"/></linearGradient></defs>
    <path d="M13 2L4 14h6l-1 8 9-12h-6l1-8z" fill="url(#gZap)"/>
  </symbol>

  <!-- ══ Spotify Service Icons (green) ══ -->
  <symbol id="i-sp-play" viewBox="0 0 48 48" fill="none">
    <defs><linearGradient id="gSpP" x1="0" y1="0" x2="48" y2="48"><stop offset="0%" stop-color="#00FF85"/><stop offset="100%" stop-color="#00cc6a"/></linearGradient></defs>
    <circle cx="24" cy="24" r="20" fill="rgba(0,255,133,0.06)" stroke="rgba(0,255,133,0.12)" stroke-width="1"/>
    <path d="M19 14l16 10-16 10z" fill="url(#gSpP)"/>
  </symbol>

  <symbol id="i-sp-followers" viewBox="0 0 48 48" fill="none">
    <defs><linearGradient id="gSpF" x1="0" y1="0" x2="48" y2="48"><stop offset="0%" stop-color="#00FF85"/><stop offset="100%" stop-color="#00cc6a"/></linearGradient></defs>
    <circle cx="18" cy="16" r="6" fill="url(#gSpF)"/>
    <path d="M8 38c0-6 4-10 10-10s10 4 10 10" fill="rgba(0,255,133,0.1)" stroke="url(#gSpF)" stroke-width="1.5"/>
    <circle cx="33" cy="16" r="4.5" fill="rgba(0,255,133,0.4)"/>
    <path d="M37 23v6M34 26h6" stroke="url(#gSpF)" stroke-width="2" stroke-linecap="round"/>
  </symbol>

  <symbol id="i-sp-listeners" viewBox="0 0 48 48" fill="none">
    <defs><linearGradient id="gSpL" x1="0" y1="0" x2="48" y2="48"><stop offset="0%" stop-color="#00FF85"/><stop offset="100%" stop-color="#00cc6a"/></linearGradient></defs>
    <path d="M24 8a8 8 0 00-8 8v1a8 8 0 0016 0v-1a8 8 0 00-8-8z" fill="url(#gSpL)"/>
    <path d="M10 40c0-7 6-12 14-12s14 5 14 12" stroke="url(#gSpL)" stroke-width="2" fill="rgba(0,255,133,0.06)"/>
  </symbol>

  <symbol id="i-sp-saves" viewBox="0 0 48 48" fill="none">
    <defs><linearGradient id="gSpS" x1="0" y1="0" x2="48" y2="48"><stop offset="0%" stop-color="#00FF85"/><stop offset="100%" stop-color="#00cc6a"/></linearGradient></defs>
    <path d="M14 6h20a2 2 0 012 2v30l-12-8-12 8V8a2 2 0 012-2z" fill="rgba(0,255,133,0.1)" stroke="url(#gSpS)" stroke-width="1.8"/>
    <path d="M20 20h8M24 16v8" stroke="url(#gSpS)" stroke-width="2" stroke-linecap="round"/>
  </symbol>

  <symbol id="i-sp-playlist" viewBox="0 0 48 48" fill="none">
    <defs><linearGradient id="gSpPl" x1="0" y1="0" x2="48" y2="48"><stop offset="0%" stop-color="#00FF85"/><stop offset="100%" stop-color="#00cc6a"/></linearGradient></defs>
    <path d="M10 14h18M10 21h18M10 28h10" stroke="url(#gSpPl)" stroke-width="2.5" stroke-linecap="round"/>
    <circle cx="33" cy="32" r="6" fill="rgba(0,255,133,0.12)" stroke="url(#gSpPl)" stroke-width="1.5"/>
    <path d="M39 22v10M33 26v6" stroke="url(#gSpPl)" stroke-width="1.5" stroke-linecap="round"/>
  </symbol>

  <symbol id="i-sp-monthly" viewBox="0 0 48 48" fill="none">
    <defs><linearGradient id="gSpM" x1="0" y1="0" x2="48" y2="48"><stop offset="0%" stop-color="#00FF85"/><stop offset="100%" stop-color="#00cc6a"/></linearGradient></defs>
    <rect x="8" y="10" width="32" height="28" rx="4" fill="rgba(0,255,133,0.05)" stroke="url(#gSpM)" stroke-width="1.5"/>
    <path d="M8 18h32" stroke="url(#gSpM)" stroke-width="1.2"/>
    <path d="M16 10V6M32 10V6" stroke="url(#gSpM)" stroke-width="2" stroke-linecap="round"/>
    <path d="M15 26h4l3-4 4 8 3-4h4" stroke="url(#gSpM)" stroke-width="2" stroke-linecap="round" stroke-linejoin="round"/>
  </symbol>

  <symbol id="i-sp-package" viewBox="0 0 48 48" fill="none">
    <defs><linearGradient id="gSpPk" x1="0" y1="0" x2="48" y2="48"><stop offset="0%" stop-color="#00FF85"/><stop offset="100%" stop-color="#00cc6a"/></linearGradient></defs>
    <path d="M12 18l12-7 12 7-12 7z" fill="rgba(0,255,133,0.12)" stroke="url(#gSpPk)" stroke-width="1.5" stroke-linejoin="round"/>
    <path d="M12 18v13l12 7v-13M36 18v13l-12 7v-13" stroke="url(#gSpPk)" stroke-width="1.5" stroke-linejoin="round"/>
  </symbol>

  <symbol id="i-sp-featured" viewBox="0 0 48 48" fill="none">
    <defs><linearGradient id="gSpFt" x1="0" y1="0" x2="48" y2="48"><stop offset="0%" stop-color="#FFD700"/><stop offset="100%" stop-color="#00FF85"/></linearGradient></defs>
    <circle cx="24" cy="24" r="20" fill="rgba(0,255,133,0.05)" stroke="rgba(0,255,133,0.1)" stroke-width="1"/>
    <path d="M24 8l4 8.2 9 1.3-6.5 6.3 1.5 8.9L24 28.5l-8 4.2 1.5-8.9L11 17.5l9-1.3z" fill="url(#gSpFt)"/>
  </symbol>

  <!-- ══ SoundCloud Service Icons (orange) ══ -->
  <symbol id="i-sc-play" viewBox="0 0 48 48" fill="none">
    <defs><linearGradient id="gScP" x1="0" y1="0" x2="48" y2="48"><stop offset="0%" stop-color="#FF8800"/><stop offset="100%" stop-color="#FF5500"/></linearGradient></defs>
    <circle cx="24" cy="24" r="20" fill="rgba(255,85,0,0.06)" stroke="rgba(255,85,0,0.12)" stroke-width="1"/>
    <path d="M19 14l16 10-16 10z" fill="url(#gScP)"/>
  </symbol>

  <symbol id="i-sc-followers" viewBox="0 0 48 48" fill="none">
    <defs><linearGradient id="gScF" x1="0" y1="0" x2="48" y2="48"><stop offset="0%" stop-color="#FF8800"/><stop offset="100%" stop-color="#FF5500"/></linearGradient></defs>
    <circle cx="18" cy="16" r="6" fill="url(#gScF)"/>
    <path d="M8 38c0-6 4-10 10-10s10 4 10 10" fill="rgba(255,85,0,0.1)" stroke="url(#gScF)" stroke-width="1.5"/>
    <circle cx="33" cy="16" r="4.5" fill="rgba(255,85,0,0.4)"/>
    <path d="M37 23v6M34 26h6" stroke="url(#gScF)" stroke-width="2" stroke-linecap="round"/>
  </symbol>

  <symbol id="i-sc-likes" viewBox="0 0 48 48" fill="none">
    <defs><linearGradient id="gScLk" x1="0" y1="0" x2="48" y2="48"><stop offset="0%" stop-color="#FF8800"/><stop offset="100%" stop-color="#FF5500"/></linearGradient></defs>
    <path d="M24 40S10 31 10 21c0-5 4-9 8.5-9 2.5 0 4.5 1.5 5.5 3 1-1.5 3-3 5.5-3 4.5 0 8.5 4 8.5 9 0 10-14 19-14 19z" fill="url(#gScLk)"/>
  </symbol>

  <symbol id="i-sc-reposts" viewBox="0 0 48 48" fill="none">
    <defs><linearGradient id="gScRp" x1="0" y1="0" x2="48" y2="48"><stop offset="0%" stop-color="#FF8800"/><stop offset="100%" stop-color="#FF5500"/></linearGradient></defs>
    <path d="M8 19h22l-6-6" stroke="url(#gScRp)" stroke-width="2.5" stroke-linecap="round" stroke-linejoin="round"/>
    <path d="M40 29H18l6 6" stroke="url(#gScRp)" stroke-width="2.5" stroke-linecap="round" stroke-linejoin="round"/>
  </symbol>

  <symbol id="i-sc-comments" viewBox="0 0 48 48" fill="none">
    <defs><linearGradient id="gScCm" x1="0" y1="0" x2="48" y2="48"><stop offset="0%" stop-color="#FF8800"/><stop offset="100%" stop-color="#FF5500"/></linearGradient></defs>
    <path d="M10 12h28a3 3 0 013 3v14a3 3 0 01-3 3H22l-7 6v-6h-5a3 3 0 01-3-3V15a3 3 0 013-3z" fill="rgba(255,85,0,0.1)" stroke="url(#gScCm)" stroke-width="1.5"/>
    <path d="M17 21h14M17 26h8" stroke="url(#gScCm)" stroke-width="2" stroke-linecap="round"/>
  </symbol>

  <symbol id="i-sc-organic" viewBox="0 0 48 48" fill="none">
    <defs><linearGradient id="gScOr" x1="0" y1="0" x2="48" y2="48"><stop offset="0%" stop-color="#FF8800"/><stop offset="100%" stop-color="#FF5500"/></linearGradient></defs>
    <path d="M24 40V22" stroke="url(#gScOr)" stroke-width="2.5" stroke-linecap="round"/>
    <path d="M24 22c-3-5-10-7-12-3s3 9 12 3z" fill="rgba(255,85,0,0.15)" stroke="url(#gScOr)" stroke-width="1.5"/>
    <path d="M24 30c3-5 10-7 12-3s-3 9-12 3z" fill="rgba(255,85,0,0.15)" stroke="url(#gScOr)" stroke-width="1.5"/>
    <path d="M24 16c-2-4-7-6-9-3s2 7 9 3z" fill="rgba(255,85,0,0.1)" stroke="url(#gScOr)" stroke-width="1.2"/>
  </symbol>

  <symbol id="i-sc-package" viewBox="0 0 48 48" fill="none">
    <defs><linearGradient id="gScPk" x1="0" y1="0" x2="48" y2="48"><stop offset="0%" stop-color="#FF8800"/><stop offset="100%" stop-color="#FF5500"/></linearGradient></defs>
    <path d="M12 18l12-7 12 7-12 7z" fill="rgba(255,85,0,0.12)" stroke="url(#gScPk)" stroke-width="1.5" stroke-linejoin="round"/>
    <path d="M12 18v13l12 7v-13M36 18v13l-12 7v-13" stroke="url(#gScPk)" stroke-width="1.5" stroke-linejoin="round"/>
  </symbol>

  <symbol id="i-sc-fire" viewBox="0 0 48 48" fill="none">
    <defs><linearGradient id="gScFi" x1="0" y1="0" x2="48" y2="48"><stop offset="0%" stop-color="#FF8800"/><stop offset="100%" stop-color="#FF5500"/></linearGradient></defs>
    <path d="M24 6c2 7 12 12 12 22a14 14 0 01-28 0c0-7 4-12 7-16 0 5 2 9 5 9-1-5 2-11 4-15z" fill="url(#gScFi)"/>
  </symbol>

  <!-- ══ Stat Icons ══ -->
  <symbol id="i-rocket" viewBox="0 0 48 48" fill="none">
    <defs><linearGradient id="gRk" x1="0" y1="0" x2="48" y2="48"><stop offset="0%" stop-color="#00FF85"/><stop offset="100%" stop-color="#00cc6a"/></linearGradient></defs>
    <circle cx="24" cy="24" r="22" fill="rgba(0,255,133,0.05)" stroke="rgba(0,255,133,0.1)" stroke-width="1"/>
    <path d="M24 8c-4 4-8 12-8 20l4 4 8-8 8 8 4-4c0-8-4-16-8-20z" fill="rgba(0,255,133,0.08)" stroke="url(#gRk)" stroke-width="1.5" stroke-linejoin="round"/>
    <circle cx="24" cy="20" r="3" fill="url(#gRk)"/>
    <path d="M16 28l-4 8 6-2M32 28l4 8-6-2" stroke="url(#gRk)" stroke-width="1.5" stroke-linecap="round" stroke-linejoin="round"/>
  </symbol>

  <symbol id="i-heart" viewBox="0 0 48 48" fill="none">
    <defs><linearGradient id="gHt" x1="0" y1="0" x2="48" y2="48"><stop offset="0%" stop-color="#FF6B9D"/><stop offset="100%" stop-color="#C44569"/></linearGradient></defs>
    <circle cx="24" cy="24" r="22" fill="rgba(255,107,157,0.05)" stroke="rgba(255,107,157,0.1)" stroke-width="1"/>
    <path d="M24 38S10 29 10 19c0-5 4-9 8.5-9 2.5 0 4.5 1.5 5.5 3 1-1.5 3-3 5.5-3 4.5 0 8.5 4 8.5 9 0 10-14 19-14 19z" fill="url(#gHt)"/>
  </symbol>

  <!-- ══ Platform Icons ══ -->
  <symbol id="i-spotify" viewBox="0 0 48 48" fill="none">
    <path d="M14 19c7-2.5 16-2.5 22 2" stroke="#00FF85" stroke-width="3" stroke-linecap="round"/>
    <path d="M16 26c5-2 12-2 18 2" stroke="#00FF85" stroke-width="2.5" stroke-linecap="round"/>
    <path d="M19 33c4-1.5 10-1.5 14 1" stroke="#00FF85" stroke-width="2" stroke-linecap="round"/>
  </symbol>

  <symbol id="i-cloud" viewBox="0 0 48 48" fill="none">
    <defs><linearGradient id="gCl" x1="0" y1="0" x2="48" y2="48"><stop offset="0%" stop-color="#FF8800"/><stop offset="100%" stop-color="#FF5500"/></linearGradient></defs>
    <path d="M14 30a7 7 0 01-.5-14A10 10 0 0130 14a8 8 0 017 12H38a5 5 0 010 10H14z" fill="url(#gCl)" opacity="0.65"/>
  </symbol>

  <!-- ══ "For Whom" Tag Icons ══ -->
  <symbol id="i-mic" viewBox="0 0 24 24" fill="none">
    <rect x="8" y="2" width="8" height="12" rx="4" fill="rgba(0,255,133,0.2)" stroke="#00FF85" stroke-width="1.2"/>
    <path d="M5 12a7 7 0 0014 0" stroke="#00FF85" stroke-width="1.2"/>
    <path d="M12 19v3M9 22h6" stroke="#00FF85" stroke-width="1.2" stroke-linecap="round"/>
  </symbol>

  <symbol id="i-headphones" viewBox="0 0 24 24" fill="none">
    <path d="M4 15v-3a8 8 0 0116 0v3" stroke="#00FF85" stroke-width="1.5"/>
    <rect x="2" y="15" width="4" height="6" rx="1.5" fill="rgba(0,255,133,0.2)" stroke="#00FF85" stroke-width="1"/>
    <rect x="18" y="15" width="4" height="6" rx="1.5" fill="rgba(0,255,133,0.2)" stroke="#00FF85" stroke-width="1"/>
  </symbol>

  <symbol id="i-vinyl" viewBox="0 0 24 24" fill="none">
    <circle cx="12" cy="12" r="10" fill="rgba(0,255,133,0.06)" stroke="#00FF85" stroke-width="1.2"/>
    <circle cx="12" cy="12" r="4" fill="rgba(0,255,133,0.2)" stroke="#00FF85" stroke-width="1"/>
    <circle cx="12" cy="12" r="1.5" fill="#00FF85"/>
  </symbol>

  <symbol id="i-turntable" viewBox="0 0 24 24" fill="none">
    <rect x="2" y="4" width="20" height="16" rx="3" fill="rgba(0,255,133,0.06)" stroke="#00FF85" stroke-width="1"/>
    <circle cx="11" cy="12" r="5" stroke="#00FF85" stroke-width="1"/>
    <circle cx="11" cy="12" r="1.5" fill="#00FF85"/>
    <path d="M17 8l2-2" stroke="#00FF85" stroke-width="1.5" stroke-linecap="round"/>
  </symbol>

  <symbol id="i-piano" viewBox="0 0 24 24" fill="none">
    <rect x="2" y="5" width="20" height="14" rx="2" fill="rgba(0,255,133,0.06)" stroke="#00FF85" stroke-width="1"/>
    <path d="M7 5v8M12 5v8M17 5v8" stroke="rgba(0,255,133,0.4)" stroke-width="2.5"/>
  </symbol>

  <symbol id="i-podcast" viewBox="0 0 24 24" fill="none">
    <circle cx="12" cy="9" r="3" fill="#00FF85"/>
    <path d="M7 13a6 6 0 0110 0" stroke="#00FF85" stroke-width="1.2"/>
    <path d="M4 16a10 10 0 0116 0" stroke="rgba(0,255,133,0.3)" stroke-width="1.2"/>
    <path d="M12 12v6" stroke="#00FF85" stroke-width="1.5" stroke-linecap="round"/>
    <path d="M9 20h6" stroke="#00FF85" stroke-width="1.2" stroke-linecap="round"/>
  </symbol>

  <!-- ══ Email / Payment ══ -->
  <symbol id="i-email" viewBox="0 0 24 24" fill="none">
    <rect x="3" y="5" width="18" height="14" rx="2" fill="rgba(0,255,133,0.05)" stroke="#00FF85" stroke-width="1.2"/>
    <path d="M3 7l9 6 9-6" stroke="#00FF85" stroke-width="1.2" stroke-linecap="round" stroke-linejoin="round"/>
  </symbol>

  <symbol id="i-credit-card" viewBox="0 0 24 24" fill="none">
    <rect x="2" y="5" width="20" height="14" rx="2" fill="rgba(0,255,133,0.05)" stroke="#00FF85" stroke-width="1.2"/>
    <path d="M2 10h20" stroke="#00FF85" stroke-width="1.2"/>
    <path d="M6 15h4M14 15h4" stroke="rgba(0,255,133,0.4)" stroke-width="1.2" stroke-linecap="round"/>
  </symbol>

  <!-- ══ Featured Playlist Icons ══ -->
  <symbol id="i-pl-hiphop" viewBox="0 0 32 32" fill="none">
    <rect x="10" y="6" width="4" height="18" rx="2" fill="rgba(0,255,133,0.35)"/>
    <rect x="18" y="10" width="4" height="14" rx="2" fill="rgba(0,255,133,0.2)"/>
    <circle cx="12" cy="24" r="3.5" fill="rgba(0,255,133,0.2)" stroke="#00FF85" stroke-width="1"/>
    <circle cx="20" cy="24" r="3.5" fill="rgba(0,255,133,0.2)" stroke="#00FF85" stroke-width="1"/>
  </symbol>

  <symbol id="i-pl-electronic" viewBox="0 0 32 32" fill="none">
    <path d="M4 16h3l2.5-7 3.5 14 3-10 2.5 5 3-7 2.5 5H27" stroke="#00FF85" stroke-width="2" stroke-linecap="round" stroke-linejoin="round"/>
  </symbol>

  <symbol id="i-pl-indie" viewBox="0 0 32 32" fill="none">
    <path d="M16 6l3 6 6.5 1-4.7 4.6 1.1 6.4L16 21l-5.9 3 1.1-6.4-4.7-4.6 6.5-1z" fill="rgba(255,215,0,0.45)" stroke="rgba(255,215,0,0.7)" stroke-width="1"/>
  </symbol>

  <symbol id="i-pl-chill" viewBox="0 0 32 32" fill="none">
    <circle cx="12.5" cy="14" r="2" fill="#00FF85"/>
    <circle cx="19.5" cy="14" r="2" fill="#00FF85"/>
    <path d="M11 22c0-3 2.2-5 5-5s5 2 5 5" stroke="#00FF85" stroke-width="1.5" stroke-linecap="round"/>
  </symbol>

  <symbol id="i-pl-latin" viewBox="0 0 32 32" fill="none">
    <path d="M13 8c-2 5-2 10 0 16" stroke="#FF6B6B" stroke-width="2" stroke-linecap="round"/>
    <path d="M19 8c2 5 2 10 0 16" stroke="#FFA500" stroke-width="2" stroke-linecap="round"/>
    <path d="M8 16h16" stroke="#FFD700" stroke-width="1.5" stroke-linecap="round"/>
  </symbol>

  <symbol id="i-pl-rnb" viewBox="0 0 32 32" fill="none">
    <circle cx="14" cy="20" r="6" stroke="#00FF85" stroke-width="1.2"/>
    <circle cx="14" cy="20" r="2" fill="#00FF85"/>
    <path d="M20 20v-10l-6 3.5v6.5" stroke="#00FF85" stroke-width="1.5" stroke-linecap="round" stroke-linejoin="round"/>
  </symbol>

  <!-- ══ SEO Tag Icons ══ -->
  <symbol id="i-tag-star" viewBox="0 0 20 20" fill="none">
    <path d="M10 2l2.5 5 5.5.8-4 3.8 1 5.4L10 14.5 5 17l1-5.4-4-3.8 5.5-.8z" fill="#00FF85" opacity="0.6"/>
  </symbol>

  <symbol id="i-tag-shield" viewBox="0 0 20 20" fill="none">
    <path d="M10 2L3 5.5v5c0 5 3 7.5 7 9.5 4-2 7-4.5 7-9.5v-5z" fill="rgba(0,255,133,0.12)" stroke="#00FF85" stroke-width="1"/>
    <path d="M7 10.5l2.5 2.5 4-4" stroke="#00FF85" stroke-width="1.5" stroke-linecap="round" stroke-linejoin="round"/>
  </symbol>

  <symbol id="i-tag-chart" viewBox="0 0 20 20" fill="none">
    <path d="M3 15l5-5 3.5 2.5L17 5" stroke="#00FF85" stroke-width="1.5" stroke-linecap="round" stroke-linejoin="round"/>
    <path d="M14 5h3v3" stroke="#00FF85" stroke-width="1.5" stroke-linecap="round" stroke-linejoin="round"/>
  </symbol>

  <symbol id="i-tag-target" viewBox="0 0 20 20" fill="none">
    <circle cx="10" cy="10" r="8" stroke="#00FF85" stroke-width="1"/>
    <circle cx="10" cy="10" r="4.5" stroke="#00FF85" stroke-width="1"/>
    <circle cx="10" cy="10" r="1.5" fill="#00FF85"/>
  </symbol>

  <symbol id="i-tag-community" viewBox="0 0 20 20" fill="none">
    <circle cx="7" cy="7" r="3" fill="rgba(255,85,0,0.25)" stroke="#FF5500" stroke-width="0.8"/>
    <circle cx="13" cy="7" r="3" fill="rgba(255,85,0,0.25)" stroke="#FF5500" stroke-width="0.8"/>
    <path d="M2 17c0-3 2-5 5-5s5 2 5 5M8 17c0-3 2-5 5-5s5 2 5 5" stroke="#FF5500" stroke-width="0.8"/>
  </symbol>

  <symbol id="i-tag-repost" viewBox="0 0 20 20" fill="none">
    <path d="M3 7h11l-3.5-3.5" stroke="#FF5500" stroke-width="1.5" stroke-linecap="round" stroke-linejoin="round"/>
    <path d="M17 13H6l3.5 3.5" stroke="#FF5500" stroke-width="1.5" stroke-linecap="round" stroke-linejoin="round"/>
  </symbol>

  <symbol id="i-tag-gradual" viewBox="0 0 20 20" fill="none">
    <path d="M3 15l5-5 3.5 2.5L17 5" stroke="#FF5500" stroke-width="1.5" stroke-linecap="round" stroke-linejoin="round"/>
    <path d="M14 5h3v3" stroke="#FF5500" stroke-width="1.5" stroke-linecap="round" stroke-linejoin="round"/>
  </symbol>

  <symbol id="i-tag-engage" viewBox="0 0 20 20" fill="none">
    <path d="M10 17s-6-4-6-9.5c0-3 2-5 4-5 1.2 0 2 .8 2 .8s.8-.8 2-.8c2 0 4 2 4 5 0 5.5-6 9.5-6 9.5z" fill="#FF5500" opacity="0.6"/>
  </symbol>

  <!-- ══ Success / Empty Cart ══ -->
  <symbol id="i-success" viewBox="0 0 80 80" fill="none">
    <defs><linearGradient id="gSuc" x1="0" y1="0" x2="80" y2="80"><stop offset="0%" stop-color="#00FF85"/><stop offset="100%" stop-color="#00cc6a"/></linearGradient></defs>
    <circle cx="40" cy="40" r="38" fill="rgba(0,255,133,0.06)" stroke="url(#gSuc)" stroke-width="2"/>
    <circle cx="40" cy="40" r="28" fill="rgba(0,255,133,0.03)"/>
    <path d="M24 40l10 10 22-22" stroke="url(#gSuc)" stroke-width="4" stroke-linecap="round" stroke-linejoin="round"/>
  </symbol>

  <symbol id="i-empty-cart" viewBox="0 0 80 80" fill="none">
    <circle cx="40" cy="40" r="38" fill="rgba(255,255,255,0.02)" stroke="rgba(255,255,255,0.08)" stroke-width="1"/>
    <path d="M24 22l3.5 4H56l-4 18H32l-4.5-18" stroke="rgba(255,255,255,0.25)" stroke-width="2" stroke-linecap="round" stroke-linejoin="round"/>
    <circle cx="34" cy="52" r="3" fill="rgba(255,255,255,0.15)"/>
    <circle cx="50" cy="52" r="3" fill="rgba(255,255,255,0.15)"/>
  </symbol>

</svg>
