<svg xmlns="http://www.w3.org/2000/svg" viewBox="0 0 256 256"><rect width="256" height="256" fill="none"/><path d="M80,176a16,16,0,0,0-16,16v40l56-56" fill="none" stroke="currentColor" stroke-linecap="round" stroke-linejoin="round" stroke-width="16"/><path d="M128,48H64A32,32,0,0,0,32,80v64a32,32,0,0,0,32,32h8l48,48V176h8a32,32,0,0,0,32-32V80A32,32,0,0,0,128,48Z" fill="none" stroke="currentColor" stroke-linecap="round" stroke-linejoin="round" stroke-width="16"/><path d="M160,96h32a32,32,0,0,1,32,32v64a32,32,0,0,1-32,32h-8v48l-48-48" fill="none" stroke="currentColor" stroke-linecap="round" stroke-linejoin="round" stroke-width="16"/></svg>
